<?xml version="1.0" standalone="no"?>
<!DOCTYPE svg PUBLIC "-//W3C//DTD SVG 20010904//EN"
 "http://www.w3.org/TR/2001/REC-SVG-20010904/DTD/svg10.dtd">
<svg version="1.0" xmlns="http://www.w3.org/2000/svg"
 width="474.000000pt" height="358.000000pt" viewBox="0 0 474.000000 358.000000"
 preserveAspectRatio="xMidYMid meet">

<g transform="translate(0.000000,358.000000) scale(0.100000,-0.100000)"
fill="#000000" stroke="none">
<path d="M2379 3266 c-93 -88 -254 -198 -584 -397 -544 -330 -820 -590 -942
-889 -52 -126 -68 -217 -67 -375 1 -121 5 -152 28 -230 59 -197 167 -360 319
-481 306 -243 713 -255 1048 -30 129 86 300 266 401 421 18 28 35 52 38 55 3
3 12 19 21 35 26 49 140 231 222 355 153 234 273 339 436 381 59 16 93 19 151
14 250 -21 381 -129 449 -370 l20 -70 -6 75 c-37 515 -357 972 -933 1330 -135
85 -478 251 -513 250 -7 -1 -46 -34 -88 -74z"/>
<path d="M2940 1070 c-9 -6 -10 -10 -3 -10 6 0 15 5 18 10 8 12 4 12 -15 0z"/>
<path d="M2839 873 c-13 -16 -12 -17 4 -4 16 13 21 21 13 21 -2 0 -10 -8 -17
-17z"/>
<path d="M3190 739 c0 -5 5 -7 10 -4 6 3 10 8 10 11 0 2 -4 4 -10 4 -5 0 -10
-5 -10 -11z"/>
<path d="M2229 723 c-13 -16 -12 -17 4 -4 9 7 17 15 17 17 0 8 -8 3 -21 -13z"/>
<path d="M3075 660 c-3 -6 1 -7 9 -4 18 7 21 14 7 14 -6 0 -13 -4 -16 -10z"/>
</g>
</svg>
